<svg width="32" height="32" viewBox="0 0 32 32" fill="none" xmlns="http://www.w3.org/2000/svg">
<g clip-path="url(#clip0_10805_95)">
<rect width="32" height="32" fill="url(#paint0_linear_10805_95)"/>
<g clip-path="url(#clip1_10805_95)">
<path d="M3.95894 13.3735V16.2733C3.95894 19.0643 3.97436 20.7557 4.00577 21.348C4.05255 22.346 4.13803 22.9384 4.26299 23.1255C4.68404 23.7492 6.00898 24.0608 8.23874 24.0608C10.499 24.0608 12.3546 23.3359 13.8045 21.886C14.3969 21.3093 14.8569 20.5103 15.1843 19.4889C15.5117 18.468 15.6754 17.404 15.6754 16.2968C15.6754 13.9427 14.927 11.9783 13.4304 10.4035C12.4324 9.3434 11.3217 8.63784 10.0979 8.28708C8.87376 7.9362 7.43555 7.76088 5.78317 7.76088C4.98809 7.76088 4.48126 7.81566 4.26299 7.92456C4.07604 8.00274 3.98244 8.15844 3.98244 8.39219C3.96675 8.92257 3.95894 10.5829 3.95894 13.3735ZM1.99459 17.8635V13.7476C1.99459 10.8791 1.97891 9.19554 1.94781 8.69614C1.9164 8.25989 1.84266 7.94796 1.72562 7.76088C1.60872 7.57367 1.3708 7.44137 1.01236 7.3632C0.825296 7.31639 0.560104 7.29313 0.217391 7.29313C0.0456008 7.29313 -0.0400391 7.24632 -0.0400391 7.15272C-0.0400391 7.02826 0.0846162 6.96577 0.334284 6.96577C0.645897 6.96577 1.01236 6.96969 1.4333 6.9774C1.85421 6.98538 2.21284 6.99714 2.50908 7.01257C2.80502 7.02826 2.96109 7.03584 2.97682 7.03584C3.03897 7.03584 3.23772 7.02826 3.57307 7.01257C3.90823 6.99714 4.31758 6.98538 4.80094 6.9774C5.28403 6.96969 5.72826 6.96577 6.134 6.96577C6.22755 6.96577 6.37554 6.96577 6.57833 6.96577C7.26412 6.96577 7.80966 6.96969 8.21525 6.9774C8.62057 6.98538 9.20519 7.03584 9.96931 7.12945C10.7329 7.22305 11.3957 7.35561 11.957 7.52714C12.5183 7.69866 13.1263 7.96365 13.7812 8.32212C14.4359 8.68098 15.0125 9.11736 15.5117 9.63166C17.0237 11.2066 17.7802 13.1864 17.7802 15.5717C17.7802 18.1911 16.9383 20.3892 15.2546 22.1665C13.5393 23.9597 11.1774 24.856 8.16857 24.856C7.34199 24.856 6.25865 24.8093 4.91783 24.7157C4.63726 24.7 4.33694 24.6806 4.01751 24.6572C3.69773 24.634 3.45225 24.6141 3.28077 24.5987C3.10908 24.583 3.00792 24.5754 2.97682 24.5754C2.68056 24.5754 2.3687 24.583 2.04136 24.5987C1.86962 24.5987 1.62808 24.6065 1.31641 24.6222C1.00434 24.6375 0.79389 24.6455 0.685014 24.6455C0.435449 24.6455 0.310793 24.583 0.310793 24.4585C0.310793 24.3649 0.388671 24.3181 0.544733 24.3181C0.809568 24.287 1.02778 24.2559 1.19952 24.2245C1.54228 24.1624 1.76841 23.7335 1.87769 22.9384C1.95556 22.2835 1.99459 20.5921 1.99459 17.8635Z" fill="white"/>
<path d="M22.7171 15.4081V16.741C22.7171 19.8747 22.7247 21.5585 22.7406 21.7925C22.7714 22.2602 22.799 22.576 22.8224 22.7397C22.8457 22.9034 22.9118 23.0632 23.021 23.2191C23.1301 23.3749 23.3017 23.5077 23.5355 23.6165C24.0186 23.8504 24.7049 23.9673 25.5935 23.9673C25.9519 23.9673 26.3068 23.9169 26.6577 23.8153C27.0084 23.714 27.3592 23.5464 27.7101 23.3126C28.0608 23.0787 28.345 22.7318 28.5636 22.2719C28.7818 21.8121 28.891 21.2702 28.891 20.6465C28.891 19.8046 28.7155 18.9551 28.3648 18.0975C28.0139 17.2403 27.4332 16.5306 26.6224 15.9693C26.0924 15.6108 25.4453 15.3847 24.6815 15.2912C24.4788 15.2601 23.8707 15.2444 22.8573 15.2444C22.7638 15.2444 22.7171 15.2992 22.7171 15.4081ZM22.7171 7.99478V14.2622C22.7171 14.3871 22.7714 14.4726 22.8808 14.5194C23.2551 14.5819 23.7303 14.613 24.3072 14.613C24.9933 14.613 25.4608 14.5779 25.7105 14.5076C25.9598 14.4375 26.2014 14.2703 26.4356 14.0049C26.9967 13.3658 27.2774 12.5784 27.2774 11.643C27.2774 10.5518 27.016 9.60841 26.494 8.8133C25.9716 8.01818 25.1801 7.62049 24.1203 7.62049C23.6837 7.62049 23.3094 7.65972 22.9978 7.7375C22.8106 7.7843 22.7171 7.87006 22.7171 7.99478ZM20.8464 17.8635V13.7477C20.8464 10.8791 20.8304 9.19556 20.7994 8.69616C20.7679 8.27533 20.6861 7.96772 20.5539 7.77254C20.4214 7.57788 20.1679 7.44139 19.7938 7.36322C19.6068 7.31641 19.3806 7.29315 19.1157 7.29315C18.9127 7.29315 18.8115 7.24634 18.8115 7.15274C18.8115 7.02828 18.9362 6.96579 19.1858 6.96579C19.4976 6.96579 19.8639 6.96971 20.2849 6.97742C20.7058 6.9854 21.0643 6.99716 21.3608 7.01259C21.6568 7.02828 21.8129 7.03586 21.8283 7.03586C21.9688 7.03586 22.3273 7.02409 22.9042 7.00082C23.4809 6.97742 23.9719 6.96579 24.3776 6.96579C25.2816 6.96579 26.0613 7.09077 26.716 7.33994C27.371 7.58951 27.8541 7.90928 28.1658 8.29873C28.4777 8.68858 28.7039 9.06273 28.8443 9.42133C28.9846 9.78006 29.0547 10.1308 29.0547 10.4736C29.0547 11.0663 28.9337 11.6393 28.6921 12.1925C28.4504 12.7462 28.2049 13.1711 27.9556 13.467C27.7059 13.7633 27.3396 14.1686 26.8565 14.683C27.8855 15.0104 28.8167 15.6033 29.6509 16.4605C30.4849 17.3181 30.9023 18.3705 30.9023 19.6175C30.9023 20.9897 30.3795 22.1824 29.3353 23.1957C28.2905 24.2091 26.825 24.7157 24.9387 24.7157C24.8604 24.7157 24.732 24.7116 24.5528 24.7041C24.3735 24.696 24.1591 24.6843 23.9098 24.669C23.6601 24.6532 23.4419 24.6455 23.2551 24.6455C22.5845 24.5987 22.1091 24.5754 21.8283 24.5754C21.5787 24.5754 21.2047 24.5872 20.7058 24.6105C20.2068 24.634 19.8174 24.6455 19.5366 24.6455C19.287 24.6455 19.1624 24.5907 19.1624 24.4818C19.1624 24.3729 19.2794 24.3181 19.5132 24.3181C19.6844 24.3181 19.8715 24.2949 20.0747 24.2481C20.402 24.1858 20.6198 23.7492 20.7294 22.9384C20.807 22.2836 20.8464 20.5921 20.8464 17.8635Z" fill="white"/>
</g>
</g>
<defs>
<linearGradient id="paint0_linear_10805_95" x1="16" y1="0" x2="16" y2="32" gradientUnits="userSpaceOnUse">
<stop stop-color="#143676"/>
<stop offset="1" stop-color="#3F7AC5"/>
</linearGradient>
<clipPath id="clip0_10805_95">
<rect width="32" height="32" fill="white"/>
</clipPath>
<clipPath id="clip1_10805_95">
<rect width="31.0801" height="18.0698" fill="white" transform="translate(-0.0400391 6.96509)"/>
</clipPath>
</defs>
</svg>
